<?xml version="1.0" encoding="UTF-8" standalone="no"?>
<!DOCTYPE svg PUBLIC "-//W3C//DTD SVG 1.1//EN"
 "http://www.w3.org/Graphics/SVG/1.1/DTD/svg11.dtd">
<!-- Generated by graphviz version 2.38.0 (20140413.2041)
 -->
<!-- Title: G Pages: 1 -->
<svg width="280pt" height="636pt"
 viewBox="0.00 0.00 280.00 636.00" xmlns="http://www.w3.org/2000/svg" xmlns:xlink="http://www.w3.org/1999/xlink">
<g id="graph0" class="graph" transform="scale(1 1) rotate(0) translate(4 632)">
<title>G</title>
<polygon fill="white" stroke="none" points="-4,4 -4,-632 276,-632 276,4 -4,4"/>
<g id="clust1" class="cluster"><title>cluster_Global</title>
<path fill="none" stroke="gray" d="M20,-8C20,-8 252,-8 252,-8 258,-8 264,-14 264,-20 264,-20 264,-608 264,-608 264,-614 258,-620 252,-620 252,-620 20,-620 20,-620 14,-620 8,-614 8,-608 8,-608 8,-20 8,-20 8,-14 14,-8 20,-8"/>
<text text-anchor="middle" x="136" y="-607.2" font-family="Times,serif" font-size="11.00" fill="gray">Global</text>
</g>
<!-- \\Module -->
<g id="node1" class="node"><title>\\Module</title>
<polygon fill="none" stroke="black" points="73,-295 16,-295 16,-259 73,-259 73,-295"/>
<text text-anchor="middle" x="44.5" y="-274.2" font-family="Courier,monospace" font-size="11.00">Module</text>
</g>
<!-- \\ResetCounter -->
<g id="node2" class="node"><title>\\ResetCounter</title>
<polygon fill="none" stroke="black" points="249.5,-592 151.5,-592 151.5,-556 249.5,-556 249.5,-592"/>
<text text-anchor="middle" x="200.5" y="-571.2" font-family="Courier,monospace" font-size="11.00">ResetCounter</text>
</g>
<!-- \\ResetCounter&#45;&gt;\\Module -->
<g id="edge1" class="edge"><title>\\ResetCounter&#45;&gt;\\Module</title>
<path fill="none" stroke="black" d="M155.133,-555.858C151.422,-553.242 147.964,-550.299 145,-547 80.6554,-475.382 56.8001,-358.575 48.9384,-305.206"/>
<polygon fill="none" stroke="black" points="52.379,-304.537 47.5332,-295.115 45.4459,-305.502 52.379,-304.537"/>
</g>
<!-- \\Config -->
<g id="node3" class="node"><title>\\Config</title>
<polygon fill="none" stroke="black" points="229,-538 172,-538 172,-502 229,-502 229,-538"/>
<text text-anchor="middle" x="200.5" y="-517.2" font-family="Courier,monospace" font-size="11.00">Config</text>
</g>
<!-- \\Config&#45;&gt;\\Module -->
<g id="edge2" class="edge"><title>\\Config&#45;&gt;\\Module</title>
<path fill="none" stroke="black" d="M171.931,-510.702C162.485,-506.463 152.434,-500.647 145,-493 91.8478,-438.322 63.5998,-350.111 51.9872,-305.213"/>
<polygon fill="none" stroke="black" points="55.3279,-304.144 49.5108,-295.289 48.5362,-305.839 55.3279,-304.144"/>
</g>
<!-- \\Actions -->
<g id="node4" class="node"><title>\\Actions</title>
<polygon fill="none" stroke="black" points="232.5,-484 168.5,-484 168.5,-448 232.5,-448 232.5,-484"/>
<text text-anchor="middle" x="200.5" y="-463.2" font-family="Courier,monospace" font-size="11.00">Actions</text>
</g>
<!-- \\Actions&#45;&gt;\\Module -->
<g id="edge3" class="edge"><title>\\Actions&#45;&gt;\\Module</title>
<path fill="none" stroke="black" d="M168.475,-454.334C160.252,-450.297 151.784,-445.194 145,-439 102.738,-400.412 72.081,-339.783 56.6951,-304.669"/>
<polygon fill="none" stroke="black" points="59.7375,-302.882 52.5887,-295.062 53.3009,-305.633 59.7375,-302.882"/>
</g>
<!-- \\DbConnection -->
<g id="node5" class="node"><title>\\DbConnection</title>
<polygon fill="none" stroke="black" points="249.5,-430 151.5,-430 151.5,-394 249.5,-394 249.5,-430"/>
<text text-anchor="middle" x="200.5" y="-409.2" font-family="Courier,monospace" font-size="11.00">DbConnection</text>
</g>
<!-- \\Customize -->
<g id="node6" class="node"><title>\\Customize</title>
<polygon fill="none" stroke="black" points="239,-376 162,-376 162,-340 239,-340 239,-376"/>
<text text-anchor="middle" x="200.5" y="-355.2" font-family="Courier,monospace" font-size="11.00">Customize</text>
</g>
<!-- \\Customize&#45;&gt;\\Module -->
<g id="edge4" class="edge"><title>\\Customize&#45;&gt;\\Module</title>
<path fill="none" stroke="black" d="M162.468,-339.885C156.605,-336.951 150.624,-333.918 145,-331 124.01,-320.11 100.773,-307.529 82.0365,-297.251"/>
<polygon fill="none" stroke="black" points="83.6789,-294.16 73.2298,-292.409 80.3059,-300.294 83.6789,-294.16"/>
</g>
<!-- \\TablaPlcs -->
<g id="node7" class="node"><title>\\TablaPlcs</title>
<polygon fill="none" stroke="black" points="239,-322 162,-322 162,-286 239,-286 239,-322"/>
<text text-anchor="middle" x="200.5" y="-301.2" font-family="Courier,monospace" font-size="11.00">TablaPlcs</text>
</g>
<!-- \\TablaPlcs&#45;&gt;\\Module -->
<g id="edge5" class="edge"><title>\\TablaPlcs&#45;&gt;\\Module</title>
<path fill="none" stroke="black" d="M161.827,-297.395C137.937,-293.206 107.141,-287.807 83.2381,-283.616"/>
<polygon fill="none" stroke="black" points="83.578,-280.123 73.1238,-281.843 82.3691,-287.018 83.578,-280.123"/>
</g>
<!-- \\VizGraph -->
<g id="node8" class="node"><title>\\VizGraph</title>
<polygon fill="none" stroke="black" points="236,-268 165,-268 165,-232 236,-232 236,-268"/>
<text text-anchor="middle" x="200.5" y="-247.2" font-family="Courier,monospace" font-size="11.00">VizGraph</text>
</g>
<!-- \\VizGraph&#45;&gt;\\Module -->
<g id="edge6" class="edge"><title>\\VizGraph&#45;&gt;\\Module</title>
<path fill="none" stroke="black" d="M164.939,-256.059C140.73,-260.304 108.38,-265.976 83.454,-270.346"/>
<polygon fill="none" stroke="black" points="82.5165,-266.957 73.2712,-272.131 83.7254,-273.851 82.5165,-266.957"/>
</g>
<!-- \\PLCStatus -->
<g id="node9" class="node"><title>\\PLCStatus</title>
<polygon fill="none" stroke="black" points="239,-214 162,-214 162,-178 239,-178 239,-214"/>
<text text-anchor="middle" x="200.5" y="-193.2" font-family="Courier,monospace" font-size="11.00">PLCStatus</text>
</g>
<!-- \\PLCStatus&#45;&gt;\\Module -->
<g id="edge7" class="edge"><title>\\PLCStatus&#45;&gt;\\Module</title>
<path fill="none" stroke="black" d="M162.468,-214.115C156.605,-217.049 150.624,-220.082 145,-223 124.01,-233.89 100.773,-246.471 82.0365,-256.749"/>
<polygon fill="none" stroke="black" points="80.3059,-253.706 73.2298,-261.591 83.6789,-259.84 80.3059,-253.706"/>
</g>
<!-- \\ControlInputs -->
<g id="node10" class="node"><title>\\ControlInputs</title>
<polygon fill="none" stroke="black" points="252.5,-160 148.5,-160 148.5,-124 252.5,-124 252.5,-160"/>
<text text-anchor="middle" x="200.5" y="-139.2" font-family="Courier,monospace" font-size="11.00">ControlInputs</text>
</g>
<!-- \\ControlInputs&#45;&gt;\\Module -->
<g id="edge8" class="edge"><title>\\ControlInputs&#45;&gt;\\Module</title>
<path fill="none" stroke="black" d="M158.632,-160.162C153.878,-162.874 149.225,-165.834 145,-169 113.567,-192.558 83.9275,-226.881 65.3093,-250.477"/>
<polygon fill="none" stroke="black" points="62.3352,-248.6 58.9656,-258.645 67.8637,-252.894 62.3352,-248.6"/>
</g>
<!-- \\UserControl -->
<g id="node11" class="node"><title>\\UserControl</title>
<polygon fill="none" stroke="black" points="246,-106 155,-106 155,-70 246,-70 246,-106"/>
<text text-anchor="middle" x="200.5" y="-85.2" font-family="Courier,monospace" font-size="11.00">UserControl</text>
</g>
<!-- \\UserControl&#45;&gt;\\Module -->
<g id="edge9" class="edge"><title>\\UserControl&#45;&gt;\\Module</title>
<path fill="none" stroke="black" d="M156.888,-106.086C152.645,-108.755 148.587,-111.725 145,-115 102.738,-153.588 72.081,-214.217 56.6951,-249.331"/>
<polygon fill="none" stroke="black" points="53.3009,-248.367 52.5887,-258.938 59.7375,-251.118 53.3009,-248.367"/>
</g>
<!-- \\ControlOutputs -->
<g id="node12" class="node"><title>\\ControlOutputs</title>
<polygon fill="none" stroke="black" points="256,-52 145,-52 145,-16 256,-16 256,-52"/>
<text text-anchor="middle" x="200.5" y="-31.2" font-family="Courier,monospace" font-size="11.00">ControlOutputs</text>
</g>
<!-- \\ControlOutputs&#45;&gt;\\Module -->
<g id="edge10" class="edge"><title>\\ControlOutputs&#45;&gt;\\Module</title>
<path fill="none" stroke="black" d="M155.939,-52.0274C151.974,-54.6847 148.238,-57.6686 145,-61 91.8478,-115.678 63.5998,-203.889 51.9872,-248.787"/>
<polygon fill="none" stroke="black" points="48.5362,-248.161 49.5108,-258.711 55.3279,-249.856 48.5362,-248.161"/>
</g>
</g>
</svg>
