<?xml version="1.0" encoding="UTF-8" standalone="no"?>
<!DOCTYPE svg PUBLIC "-//W3C//DTD SVG 1.1//EN"
 "http://www.w3.org/Graphics/SVG/1.1/DTD/svg11.dtd">
<!-- Generated by graphviz version 2.38.0 (20140413.2041)
 -->
<!-- Title: G Pages: 1 -->
<svg width="280pt" height="474pt"
 viewBox="0.00 0.00 280.00 474.00" xmlns="http://www.w3.org/2000/svg" xmlns:xlink="http://www.w3.org/1999/xlink">
<g id="graph0" class="graph" transform="scale(1 1) rotate(0) translate(4 470)">
<title>G</title>
<polygon fill="white" stroke="none" points="-4,4 -4,-470 276,-470 276,4 -4,4"/>
<g id="clust1" class="cluster"><title>cluster_Global</title>
<path fill="none" stroke="gray" d="M20,-8C20,-8 252,-8 252,-8 258,-8 264,-14 264,-20 264,-20 264,-446 264,-446 264,-452 258,-458 252,-458 252,-458 20,-458 20,-458 14,-458 8,-452 8,-446 8,-446 8,-20 8,-20 8,-14 14,-8 20,-8"/>
<text text-anchor="middle" x="136" y="-445.2" font-family="Times,serif" font-size="11.00" fill="gray">Global</text>
</g>
<!-- \\Module -->
<g id="node1" class="node"><title>\\Module</title>
<polygon fill="none" stroke="black" points="73,-241 16,-241 16,-205 73,-205 73,-241"/>
<text text-anchor="middle" x="44.5" y="-220.2" font-family="Courier,monospace" font-size="11.00">Module</text>
</g>
<!-- \\Config -->
<g id="node2" class="node"><title>\\Config</title>
<polygon fill="none" stroke="black" points="229,-430 172,-430 172,-394 229,-394 229,-430"/>
<text text-anchor="middle" x="200.5" y="-409.2" font-family="Courier,monospace" font-size="11.00">Config</text>
</g>
<!-- \\Config&#45;&gt;\\Module -->
<g id="edge1" class="edge"><title>\\Config&#45;&gt;\\Module</title>
<path fill="none" stroke="black" d="M171.858,-401.944C162.619,-397.684 152.72,-392.049 145,-385 102.738,-346.412 72.081,-285.783 56.6951,-250.669"/>
<polygon fill="none" stroke="black" points="59.7375,-248.882 52.5887,-241.062 53.3009,-251.633 59.7375,-248.882"/>
</g>
<!-- \\Actions -->
<g id="node3" class="node"><title>\\Actions</title>
<polygon fill="none" stroke="black" points="232.5,-376 168.5,-376 168.5,-340 232.5,-340 232.5,-376"/>
<text text-anchor="middle" x="200.5" y="-355.2" font-family="Courier,monospace" font-size="11.00">Actions</text>
</g>
<!-- \\Actions&#45;&gt;\\Module -->
<g id="edge2" class="edge"><title>\\Actions&#45;&gt;\\Module</title>
<path fill="none" stroke="black" d="M168.365,-345.017C160.405,-341.055 152.098,-336.319 145,-331 113.567,-307.442 83.9275,-273.119 65.3093,-249.523"/>
<polygon fill="none" stroke="black" points="67.8637,-247.106 58.9656,-241.355 62.3352,-251.4 67.8637,-247.106"/>
</g>
<!-- \\Customize -->
<g id="node4" class="node"><title>\\Customize</title>
<polygon fill="none" stroke="black" points="239,-322 162,-322 162,-286 239,-286 239,-322"/>
<text text-anchor="middle" x="200.5" y="-301.2" font-family="Courier,monospace" font-size="11.00">Customize</text>
</g>
<!-- \\Customize&#45;&gt;\\Module -->
<g id="edge3" class="edge"><title>\\Customize&#45;&gt;\\Module</title>
<path fill="none" stroke="black" d="M162.468,-285.885C156.605,-282.951 150.624,-279.918 145,-277 124.01,-266.11 100.773,-253.529 82.0365,-243.251"/>
<polygon fill="none" stroke="black" points="83.6789,-240.16 73.2298,-238.409 80.3059,-246.294 83.6789,-240.16"/>
</g>
<!-- \\TablaPlcs -->
<g id="node5" class="node"><title>\\TablaPlcs</title>
<polygon fill="none" stroke="black" points="239,-268 162,-268 162,-232 239,-232 239,-268"/>
<text text-anchor="middle" x="200.5" y="-247.2" font-family="Courier,monospace" font-size="11.00">TablaPlcs</text>
</g>
<!-- \\TablaPlcs&#45;&gt;\\Module -->
<g id="edge4" class="edge"><title>\\TablaPlcs&#45;&gt;\\Module</title>
<path fill="none" stroke="black" d="M161.827,-243.395C137.937,-239.206 107.141,-233.807 83.2381,-229.616"/>
<polygon fill="none" stroke="black" points="83.578,-226.123 73.1238,-227.843 82.3691,-233.018 83.578,-226.123"/>
</g>
<!-- \\VizGraph -->
<g id="node6" class="node"><title>\\VizGraph</title>
<polygon fill="none" stroke="black" points="236,-214 165,-214 165,-178 236,-178 236,-214"/>
<text text-anchor="middle" x="200.5" y="-193.2" font-family="Courier,monospace" font-size="11.00">VizGraph</text>
</g>
<!-- \\VizGraph&#45;&gt;\\Module -->
<g id="edge5" class="edge"><title>\\VizGraph&#45;&gt;\\Module</title>
<path fill="none" stroke="black" d="M164.939,-202.059C140.73,-206.304 108.38,-211.976 83.454,-216.346"/>
<polygon fill="none" stroke="black" points="82.5165,-212.957 73.2712,-218.131 83.7254,-219.851 82.5165,-212.957"/>
</g>
<!-- \\ControlInputs -->
<g id="node7" class="node"><title>\\ControlInputs</title>
<polygon fill="none" stroke="black" points="252.5,-160 148.5,-160 148.5,-124 252.5,-124 252.5,-160"/>
<text text-anchor="middle" x="200.5" y="-139.2" font-family="Courier,monospace" font-size="11.00">ControlInputs</text>
</g>
<!-- \\ControlInputs&#45;&gt;\\Module -->
<g id="edge6" class="edge"><title>\\ControlInputs&#45;&gt;\\Module</title>
<path fill="none" stroke="black" d="M162.468,-160.115C156.605,-163.049 150.624,-166.082 145,-169 124.01,-179.89 100.773,-192.471 82.0365,-202.749"/>
<polygon fill="none" stroke="black" points="80.3059,-199.706 73.2298,-207.591 83.6789,-205.84 80.3059,-199.706"/>
</g>
<!-- \\UserControl -->
<g id="node8" class="node"><title>\\UserControl</title>
<polygon fill="none" stroke="black" points="246,-106 155,-106 155,-70 246,-70 246,-106"/>
<text text-anchor="middle" x="200.5" y="-85.2" font-family="Courier,monospace" font-size="11.00">UserControl</text>
</g>
<!-- \\UserControl&#45;&gt;\\Module -->
<g id="edge7" class="edge"><title>\\UserControl&#45;&gt;\\Module</title>
<path fill="none" stroke="black" d="M158.632,-106.162C153.878,-108.874 149.225,-111.834 145,-115 113.567,-138.558 83.9275,-172.881 65.3093,-196.477"/>
<polygon fill="none" stroke="black" points="62.3352,-194.6 58.9656,-204.645 67.8637,-198.894 62.3352,-194.6"/>
</g>
<!-- \\ControlOutputs -->
<g id="node9" class="node"><title>\\ControlOutputs</title>
<polygon fill="none" stroke="black" points="256,-52 145,-52 145,-16 256,-16 256,-52"/>
<text text-anchor="middle" x="200.5" y="-31.2" font-family="Courier,monospace" font-size="11.00">ControlOutputs</text>
</g>
<!-- \\ControlOutputs&#45;&gt;\\Module -->
<g id="edge8" class="edge"><title>\\ControlOutputs&#45;&gt;\\Module</title>
<path fill="none" stroke="black" d="M156.888,-52.0863C152.645,-54.7549 148.587,-57.7248 145,-61 102.738,-99.5876 72.081,-160.217 56.6951,-195.331"/>
<polygon fill="none" stroke="black" points="53.3009,-194.367 52.5887,-204.938 59.7375,-197.118 53.3009,-194.367"/>
</g>
</g>
</svg>
