<?xml version="1.0" encoding="UTF-8" standalone="no"?>
<!DOCTYPE svg PUBLIC "-//W3C//DTD SVG 1.1//EN"
 "http://www.w3.org/Graphics/SVG/1.1/DTD/svg11.dtd">
<!-- Generated by graphviz version 2.38.0 (20140413.2041)
 -->
<!-- Title: G Pages: 1 -->
<svg width="260pt" height="96pt"
 viewBox="0.00 0.00 260.00 96.00" xmlns="http://www.w3.org/2000/svg" xmlns:xlink="http://www.w3.org/1999/xlink">
<g id="graph0" class="graph" transform="scale(1 1) rotate(0) translate(4 92)">
<title>G</title>
<polygon fill="white" stroke="none" points="-4,4 -4,-92 256,-92 256,4 -4,4"/>
<g id="clust1" class="cluster"><title>cluster_Global</title>
<path fill="none" stroke="gray" d="M20,-8C20,-8 232,-8 232,-8 238,-8 244,-14 244,-20 244,-20 244,-68 244,-68 244,-74 238,-80 232,-80 232,-80 20,-80 20,-80 14,-80 8,-74 8,-68 8,-68 8,-20 8,-20 8,-14 14,-8 20,-8"/>
<text text-anchor="middle" x="126" y="-67.2" font-family="Times,serif" font-size="11.00" fill="gray">Global</text>
</g>
<!-- \\UserControl -->
<g id="node1" class="node"><title>\\UserControl</title>
<polygon fill="none" stroke="black" points="236,-52 145,-52 145,-16 236,-16 236,-52"/>
<text text-anchor="middle" x="190.5" y="-31.2" font-family="Courier,monospace" font-size="11.00">UserControl</text>
</g>
<!-- \\Module -->
<g id="node2" class="node"><title>\\Module</title>
<polygon fill="none" stroke="black" points="73,-52 16,-52 16,-16 73,-16 73,-52"/>
<text text-anchor="middle" x="44.5" y="-31.2" font-family="Courier,monospace" font-size="11.00">Module</text>
</g>
<!-- \\UserControl&#45;&gt;\\Module -->
<g id="edge1" class="edge"><title>\\UserControl&#45;&gt;\\Module</title>
<path fill="none" stroke="black" d="M144.727,-34C124.943,-34 101.943,-34 83.0704,-34"/>
<polygon fill="none" stroke="black" points="83.0571,-30.5001 73.057,-34 83.057,-37.5001 83.0571,-30.5001"/>
</g>
</g>
</svg>
